<svg width="363" height="112" viewBox="0 0 363 112" fill="none" xmlns="http://www.w3.org/2000/svg">
<g clip-path="url(#clip0_34_12)">
<path d="M48.1289 27.9222L48.4937 111.527L96.9753 83.6499L96.9974 27.9232L48.1289 27.9222Z" fill="#603808"/>
<path d="M0.00302124 27.9052L0.0120751 83.6499L48.4937 111.527V27.9012L0.00302124 27.9052Z" fill="#583101"/>
<path d="M48.5949 0L-6.10352e-05 27.9062L48.4908 55.8033L97 27.9247L48.5949 0Z" fill="#6F4518"/>
</g>
<path d="M110.706 74C110.311 74 110.113 73.788 110.113 73.364V43.1328C110.113 42.7371 110.282 42.5392 110.622 42.5392H114.692C114.918 42.5392 115.074 42.5675 115.158 42.624C115.271 42.6805 115.356 42.8077 115.413 43.0056L124.826 67.3008C124.939 67.5552 125.052 67.6824 125.165 67.6824C125.278 67.6541 125.391 67.5128 125.504 67.2584L134.917 43.0904C135.03 42.7229 135.242 42.5392 135.553 42.5392H139.835C140.146 42.5392 140.302 42.7229 140.302 43.0904V73.364C140.302 73.788 140.09 74 139.666 74H136.867C136.641 74 136.471 73.9576 136.358 73.8728C136.274 73.788 136.231 73.6467 136.231 73.4488V49.196C136.231 49.0547 136.203 48.9981 136.146 49.0264C136.09 49.0264 136.047 49.0829 136.019 49.196L126.691 73.4488C126.55 73.8163 126.281 74 125.886 74H123.85C123.398 74 123.115 73.8304 123.002 73.4912L113.802 49.4504C113.745 49.3091 113.689 49.2525 113.632 49.2808C113.604 49.2808 113.59 49.3373 113.59 49.4504V73.4488C113.59 73.6467 113.547 73.788 113.462 73.8728C113.378 73.9576 113.222 74 112.996 74H110.706ZM151.251 73.2792C151.251 73.5619 151.195 73.7597 151.082 73.8728C150.997 73.9576 150.799 74 150.488 74H148.326C148.071 74 147.902 73.9576 147.817 73.8728C147.732 73.788 147.69 73.6325 147.69 73.4064V52.1216C147.69 51.7259 147.859 51.528 148.199 51.528H150.785C151.096 51.528 151.251 51.7117 151.251 52.0792V73.2792ZM151.421 46.6944C151.421 47.2315 151.167 47.5 150.658 47.5H148.199C147.944 47.5 147.775 47.4435 147.69 47.3304C147.605 47.1891 147.563 47.0053 147.563 46.7792V43.2176C147.563 42.7653 147.76 42.5392 148.156 42.5392H150.827C151.223 42.5392 151.421 42.7512 151.421 43.1752V46.6944ZM158.428 74C158.032 74 157.834 73.8163 157.834 73.4488V52.0792C157.834 51.7117 157.99 51.528 158.301 51.528H160.845C161.156 51.528 161.311 51.6835 161.311 51.9944V54.4536C161.311 54.5949 161.339 54.6797 161.396 54.708C161.452 54.7363 161.551 54.6939 161.693 54.5808C162.626 53.8459 163.488 53.224 164.279 52.7152C165.099 52.1781 165.933 51.7824 166.781 51.528C167.629 51.2453 168.533 51.104 169.494 51.104C171.699 51.104 173.381 51.6976 174.54 52.8848C175.727 54.072 176.321 55.6125 176.321 57.5064V73.3216C176.321 73.7739 176.109 74 175.685 74H173.31C173.112 74 172.971 73.9576 172.886 73.8728C172.802 73.7597 172.759 73.6184 172.759 73.4488V58.312C172.759 56.9269 172.406 55.8528 171.699 55.0896C170.992 54.2981 169.876 53.9024 168.35 53.9024C167.53 53.9024 166.752 54.0437 166.018 54.3264C165.311 54.5808 164.59 54.9624 163.855 55.4712C163.12 55.9517 162.3 56.5736 161.396 57.3368V73.364C161.396 73.788 161.184 74 160.76 74H158.428ZM198.58 74C198.382 74 198.227 73.9576 198.114 73.8728C198.029 73.7597 197.986 73.6043 197.986 73.4064V71.6256C197.986 71.3995 197.93 71.2723 197.817 71.244C197.732 71.2157 197.605 71.2864 197.435 71.456C197.124 71.7387 196.672 72.1203 196.078 72.6008C195.513 73.0813 194.792 73.5053 193.916 73.8728C193.04 74.2403 191.994 74.424 190.778 74.424C188.998 74.424 187.401 74 185.987 73.152C184.574 72.304 183.443 71.0461 182.595 69.3784C181.776 67.6824 181.366 65.5907 181.366 63.1032C181.366 60.7005 181.776 58.6088 182.595 56.828C183.443 55.0189 184.616 53.6197 186.114 52.6304C187.641 51.6128 189.365 51.104 191.287 51.104C192.672 51.104 193.831 51.3301 194.764 51.7824C195.697 52.2347 196.517 52.7576 197.223 53.3512C197.478 53.5491 197.647 53.6339 197.732 53.6056C197.845 53.5491 197.902 53.3653 197.902 53.0544V43.0904C197.902 42.7229 198.057 42.5392 198.368 42.5392H200.954C201.265 42.5392 201.421 42.7229 201.421 43.0904V73.3216C201.421 73.576 201.378 73.7597 201.294 73.8728C201.209 73.9576 201.025 74 200.742 74H198.58ZM197.859 56.4888C196.983 55.6125 196.093 54.9341 195.188 54.4536C194.284 53.9731 193.266 53.7328 192.135 53.7328C190.778 53.7328 189.549 54.0861 188.446 54.7928C187.372 55.4712 186.524 56.5029 185.902 57.888C185.309 59.2731 185.012 60.9691 185.012 62.976C185.012 65.0395 185.323 66.7355 185.945 68.064C186.567 69.3643 187.401 70.3253 188.446 70.9472C189.492 71.5408 190.637 71.8376 191.881 71.8376C193.04 71.8376 194.057 71.5691 194.934 71.032C195.838 70.4949 196.545 69.8307 197.054 69.0392C197.591 68.2477 197.859 67.4704 197.859 66.7072V56.4888Z" fill="#060503"/>
<path d="M224.828 74H206.412V39.9631H225.376L224.828 48.349H215.784V53.4463H223.622V60.6812H215.784V66.3266H225.376L224.828 74ZM226.379 55.5291C226.379 52.8617 227.183 50.7972 228.79 49.3356C230.435 47.8375 232.682 47.0884 235.532 47.0884C238.382 47.0884 241.269 47.4538 244.192 48.1846L243.26 55.8032C239.533 54.9627 237.03 54.5425 235.751 54.5425C234.984 54.5425 234.6 54.8531 234.6 55.4743C234.6 55.8762 235.02 56.2416 235.861 56.5705C238.784 57.6302 240.976 58.836 242.438 60.1879C243.936 61.5399 244.685 63.5679 244.685 66.2718C244.685 68.9758 243.991 71.0403 242.602 72.4653C241.214 73.8538 239.076 74.5481 236.19 74.5481C233.339 74.5481 230.489 74.1827 227.639 73.4519L228.242 66.0526C231.896 67.0392 234.253 67.5324 235.313 67.5324C236.409 67.5324 236.957 67.2767 236.957 66.7651C236.957 66.2536 236.555 65.8516 235.751 65.5593C232.499 64.3169 230.124 63.0015 228.626 61.613C227.128 60.1879 226.379 58.16 226.379 55.5291ZM261.336 74.0548C258.632 74.3837 256.275 74.5481 254.266 74.5481C252.293 74.5481 250.74 74.0365 249.607 73.0134C248.511 71.9538 247.963 70.145 247.963 67.5873V54.8714H245.332V48.075H248.401L248.894 43.0325H257.171V48.075H262.049L261.665 54.8714H257.116V65.7785C257.116 66.5459 257.481 66.9295 258.212 66.9295C258.285 66.9295 259.418 66.8747 261.61 66.7651L261.336 74.0548ZM263.495 60.7908C263.495 55.9676 264.408 52.478 266.235 50.3222C268.099 48.1663 270.985 47.0884 274.895 47.0884C278.841 47.0884 281.71 48.1481 283.5 50.2674C285.291 52.3867 286.186 55.8762 286.186 60.736C286.186 65.5593 285.309 69.0671 283.555 71.2595C281.801 73.4519 278.933 74.5481 274.95 74.5481C270.967 74.5481 268.062 73.4519 266.235 71.2595C264.408 69.0671 263.495 65.5776 263.495 60.7908ZM276.649 55.5839C276.43 54.8531 275.845 54.4877 274.895 54.4877C273.945 54.4877 273.342 54.8531 273.086 55.5839C272.831 56.3147 272.703 57.8494 272.703 60.1879V61.5034C272.703 64.0977 272.831 65.7785 273.086 66.5459C273.342 67.3132 273.927 67.6969 274.84 67.6969C275.79 67.6969 276.393 67.3132 276.649 66.5459C276.905 65.7785 277.033 64.2073 277.033 61.8322V60.2428C277.033 57.8677 276.905 56.3147 276.649 55.5839ZM302.081 81.5089V73.1779H301.862C300.583 74.0913 299.195 74.5481 297.696 74.5481C294.408 74.5481 292.088 73.3971 290.736 71.0951C289.384 68.7565 288.708 65.3583 288.708 60.9005C288.708 56.4061 289.457 52.9896 290.955 50.651C292.453 48.276 294.536 47.0884 297.203 47.0884C299.871 47.0884 301.771 47.8557 302.903 49.3904H303.177L303.725 47.7461H311.289V81.5089H302.081ZM299.834 54.8166C299.067 54.8166 298.555 55.2916 298.299 56.2416C298.044 57.1551 297.916 58.4888 297.916 60.2428C297.916 61.9601 297.934 63.1294 297.97 63.7506C298.007 64.3718 298.08 65.0112 298.19 65.6689C298.336 66.2901 298.537 66.7286 298.793 66.9844C299.085 67.2036 299.542 67.3132 300.163 67.3132C300.821 67.3132 301.497 67.1488 302.191 66.8199V55.4743C301.423 55.0358 300.638 54.8166 299.834 54.8166ZM321.09 74.5481C316.742 74.5481 314.568 72.1365 314.568 67.3132V47.7461H323.886V65.066C323.886 65.9795 324.288 66.4363 325.091 66.4363C326.115 66.4363 326.973 66.1805 327.668 65.6689V47.7461H336.876V73.8904H328.161V71.972H327.942C325.932 73.6894 323.648 74.5481 321.09 74.5481ZM351.115 54.9262C350.165 54.9262 349.544 55.2551 349.251 55.9128C348.959 56.534 348.813 57.5023 348.813 58.8177H353.581V57.5023C353.581 55.7849 352.759 54.9262 351.115 54.9262ZM351.334 47.0884C355.098 47.0884 357.783 48.0019 359.391 49.8289C361.036 51.6193 361.858 54.1954 361.858 57.5571C361.858 57.9956 361.73 59.9687 361.474 63.4765H348.977C348.977 66.217 350.238 67.5873 352.759 67.5873C353.965 67.5873 356.322 67.1671 359.83 66.3266L360.597 73.123C357.528 74.0731 354.458 74.5481 351.389 74.5481C347.625 74.5481 344.739 73.324 342.729 70.8758C340.719 68.3911 339.715 65.0295 339.715 60.7908C339.715 51.6559 343.588 47.0884 351.334 47.0884Z" fill="#060503"/>
<defs>
<clipPath id="clip0_34_12">
<rect width="97" height="111.527" fill="white"/>
</clipPath>
</defs>
</svg>
